<?xml version="1.0" standalone="no"?>
<!DOCTYPE svg PUBLIC "-//W3C//DTD SVG 20010904//EN"
 "http://www.w3.org/TR/2001/REC-SVG-20010904/DTD/svg10.dtd">
<svg version="1.0" xmlns="http://www.w3.org/2000/svg"
 width="600.000000pt" height="600.000000pt" viewBox="0 0 600.000000 600.000000"
 preserveAspectRatio="xMidYMid meet">
<metadata>
Created by potrace 1.11, written by Peter Selinger 2001-2013
</metadata>
<g transform="translate(0.000000,600.000000) scale(0.100000,-0.100000)"
fill="#000000" stroke="none">
<path d="M2798 5965 c-2 -1 -39 -6 -82 -10 -43 -4 -86 -8 -95 -10 -9 -1 -38
-6 -66 -9 -444 -60 -953 -271 -1322 -548 -217 -162 -370 -310 -568 -549 -175
-211 -375 -581 -474 -875 -109 -326 -156 -616 -156 -959 0 -314 30 -531 116
-830 189 -657 610 -1236 1184 -1626 48 -33 88 -59 91 -59 2 0 27 -15 56 -34
127 -80 336 -178 526 -246 106 -38 390 -113 467 -123 44 -7 106 -16 144 -22
180 -30 584 -25 814 10 1269 192 2268 1174 2481 2440 8 50 18 122 21 160 4 39
9 83 11 99 7 43 7 378 0 466 -71 882 -529 1683 -1256 2194 -58 41 -121 83
-140 94 -19 10 -59 34 -89 51 -150 89 -398 197 -581 254 -195 59 -341 89 -600
123 -48 6 -476 14 -482 9z"/>
</g>
</svg>
